<svg width="28" height="38" viewBox="0 0 28 38" fill="none" xmlns="http://www.w3.org/2000/svg">
<path d="M24.4626 11.4743C23.1586 10.3388 21.6368 9.4915 19.9939 8.9861C18.6814 8.53971 17.3189 8.26306 15.9386 8.16268C18.3225 5.67449 22.7033 5.10167 22.7033 5.10167L20.0203 0C20.0203 0 10.4758 1.82586 8.64609 9.08456C8.04125 9.30233 7.45317 9.5656 6.88674 9.87218C4.74305 11.0218 2.97819 12.7863 1.81102 14.947C0.543869 17.4057 -0.0773226 20.1558 0.00768822 22.9307C-0.0720728 25.7227 0.532557 28.4911 1.76704 30.986C2.91333 33.1986 4.68 35.0148 6.84276 36.204C9.20309 37.452 11.8369 38.0681 14.4959 37.994C16.3352 37.998 18.1627 37.6957 19.9059 37.099C21.5353 36.5716 23.035 35.6958 24.3043 34.5303L22.1755 29.6255C21.1706 30.5492 19.9997 31.2664 18.7272 31.7378C17.5694 32.1743 16.3463 32.4044 15.1117 32.418C14.0172 32.4799 12.9229 32.2918 11.9092 31.8675C10.8954 31.4431 9.98786 30.7933 9.25306 29.9656C7.92476 28.3725 7.18583 26.0275 7.18583 22.9844C7.18583 19.9413 7.84558 17.7932 9.1563 16.2C11.03 21.8566 15.6835 25.7232 21.1199 24.8102C25.8349 24.0226 27.1368 21.4539 27.823 19.1089C28.5971 16.3701 26.7146 13.6492 24.4626 11.4743ZM15.2876 15.2334C15.0424 14.7255 14.845 14.195 14.6982 13.6492H15.1469C16.4019 13.662 17.6445 13.9046 18.8151 14.3652C19.9268 14.7777 20.9596 15.3833 21.8676 16.1553C22.1975 16.4363 22.4442 16.8051 22.5801 17.2204C23.3806 19.9413 18.4193 21.9372 15.2876 15.2334Z" fill="#FFF9EF"/>
</svg>
