<svg width="52" height="52" viewBox="0 0 52 52" fill="none" xmlns="http://www.w3.org/2000/svg">
<path d="M36.4626 18.4743C35.1586 17.3388 33.6368 16.4915 31.9939 15.9861C30.6814 15.5397 29.3189 15.2631 27.9386 15.1627C30.3225 12.6745 34.7033 12.1017 34.7033 12.1017L32.0203 7C32.0203 7 22.4758 8.82586 20.6461 16.0846C20.0412 16.3023 19.4532 16.5656 18.8867 16.8722C16.7431 18.0218 14.9782 19.7863 13.811 21.947C12.5439 24.4057 11.9227 27.1558 12.0077 29.9307C11.9279 32.7227 12.5326 35.4911 13.767 37.986C14.9133 40.1986 16.68 42.0148 18.8428 43.204C21.2031 44.452 23.8369 45.0681 26.4959 44.994C28.3352 44.998 30.1627 44.6957 31.9059 44.099C33.5353 43.5716 35.035 42.6958 36.3043 41.5303L34.1755 36.6255C33.1706 37.5492 31.9997 38.2664 30.7272 38.7378C29.5694 39.1743 28.3463 39.4044 27.1117 39.418C26.0172 39.4799 24.9229 39.2918 23.9092 38.8675C22.8954 38.4431 21.9879 37.7933 21.2531 36.9656C19.9248 35.3725 19.1858 33.0275 19.1858 29.9844C19.1858 26.9413 19.8456 24.7932 21.1563 23.2C23.03 28.8566 27.6835 32.7232 33.1199 31.8102C37.8349 31.0226 39.1368 28.4539 39.823 26.1089C40.5971 23.3701 38.7146 20.6492 36.4626 18.4743ZM27.2876 22.2334C27.0424 21.7255 26.845 21.195 26.6982 20.6492H27.1469C28.4019 20.662 29.6445 20.9046 30.8151 21.3652C31.9268 21.7777 32.9596 22.3833 33.8676 23.1553C34.1975 23.4363 34.4442 23.8051 34.5801 24.2204C35.3806 26.9413 30.4193 28.9372 27.2876 22.2334Z" fill="#FFF9EF"/>
</svg>
