<svg width="140" height="39" viewBox="0 0 140 39" fill="none" xmlns="http://www.w3.org/2000/svg">
<g id="Frame" clip-path="url(#clip0_2232_1769)">
<path id="Vector" d="M36.4903 12.6544C36.0058 11.6229 35.2502 10.7529 34.3097 10.1435C33.0024 9.28465 31.4782 8.84435 29.929 8.87802C28.3374 8.84563 26.7702 9.28478 25.4129 10.1435C24.0845 11.0255 23.0297 12.2832 22.3742 13.7666C21.6045 15.5501 21.234 17.4896 21.2903 19.4412C21.2392 21.393 21.6117 23.3318 22.3806 25.1157C23.0302 26.6084 24.0859 27.8741 25.4193 28.7589C26.776 29.6199 28.3432 30.0614 29.9355 30.031C31.4632 30.0534 32.9646 29.6185 34.258 28.7789C35.1278 28.2357 35.8441 27.4663 36.3355 26.5477V29.6247H41.1677V14.3727C41.1677 13.5424 41.2 12.6966 41.2645 11.8352C41.329 10.976 41.4064 10.1301 41.4839 9.29761H36.8258L36.4903 12.6544ZM34.9935 24.4963C34.5372 25.0438 33.9675 25.4784 33.3264 25.7678C32.6854 26.0571 31.9895 26.1939 31.2903 26.168C30.5878 26.198 29.8878 26.0631 29.243 25.7735C28.5983 25.484 28.0255 25.0473 27.5677 24.4963C26.643 23.3818 26.1806 21.6968 26.1806 19.4412C26.1806 17.1856 26.6494 15.5094 27.5871 14.4127C28.0464 13.8703 28.6172 13.4406 29.2579 13.1548C29.8985 12.8691 30.5929 12.7345 31.2903 12.7609C31.9877 12.7345 32.6821 12.8691 33.3227 13.1548C33.9634 13.4406 34.5342 13.8703 34.9935 14.4127C35.9269 15.5094 36.3957 17.1856 36.4 19.4412C36.4043 21.6968 35.9355 23.3818 34.9935 24.4963Z" fill="#E9E6E3"/>
<path id="Vector_2" d="M49.4258 0H44.5484V29.6248H49.4258V0Z" fill="#E9E6E3"/>
<path id="Vector_3" d="M57.6516 0H52.7742V29.6248H57.6516V0Z" fill="#E9E6E3"/>
<path id="Vector_4" d="M101.987 10.1435C100.548 9.2678 98.8955 8.83563 97.2258 8.898C95.4578 8.85779 93.7129 9.31849 92.1806 10.2301C90.7415 11.1129 89.5721 12.3962 88.8064 13.9332C87.9683 15.6545 87.5519 17.5617 87.5935 19.4878C87.5935 22.7647 88.5312 25.3422 90.4065 27.2204C92.2817 29.0986 94.8624 30.0376 98.1484 30.0376C99.5522 30.0406 100.948 29.8159 102.284 29.3716C103.502 28.9885 104.639 28.3741 105.639 27.56L104.194 24.1766C103.36 24.8497 102.416 25.3619 101.406 25.6885C100.387 26.0041 99.3284 26.1612 98.2645 26.1547C97.4523 26.2066 96.6383 26.0888 95.8712 25.8084C95.1041 25.5281 94.3997 25.0909 93.8 24.523C92.7872 23.3462 92.2372 21.8211 92.2581 20.2471H105.884V18.915C105.924 17.1035 105.585 15.3043 104.89 13.6401C104.279 12.2038 103.268 10.987 101.987 10.1435ZM92.3097 17.5896C92.4083 16.3422 92.8318 15.1455 93.5355 14.1263C93.9708 13.5425 94.5371 13.0768 95.1857 12.7693C95.8342 12.4618 96.5454 12.3218 97.2581 12.3613C97.888 12.3207 98.5184 12.434 99.0979 12.692C99.6775 12.9501 100.19 13.3457 100.594 13.8466C101.345 14.9392 101.743 16.2495 101.729 17.5896H92.3097Z" fill="#E9E6E3"/>
<path id="Vector_5" d="M120.645 9.17772C120.367 9.07405 120.08 9.0004 119.787 8.95793C119.41 8.91294 119.031 8.89292 118.652 8.89798C117.654 8.89665 116.669 9.12414 115.768 9.56401C114.865 10.0161 114.093 10.7052 113.529 11.5621C113.241 11.9767 112.998 12.4235 112.806 12.8941L112.471 9.32424H107.742C107.845 10.159 107.916 11.0182 107.955 11.9018C107.994 12.7854 108.013 13.6578 108.013 14.5192V29.6247H112.929V18.8018C112.91 17.7897 113.104 16.7853 113.497 15.858C113.856 15.0279 114.453 14.3308 115.206 13.8599C116.074 13.3434 117.064 13.0873 118.065 13.1206C118.496 13.1159 118.927 13.1426 119.355 13.2005C119.799 13.2843 120.232 13.4206 120.645 13.6068V9.17772Z" fill="#E9E6E3"/>
<path id="Vector_6" d="M138.774 13.8268C137.987 12.2884 136.78 11.0219 135.303 10.1836C133.678 9.29352 131.858 8.8508 130.019 8.89821C128.186 8.84911 126.372 9.29203 124.755 10.1836C123.283 11.0266 122.08 12.2921 121.29 13.8268C120.435 15.5636 120.013 17.4936 120.065 19.4414C120.013 21.3955 120.435 23.332 121.29 25.076C122.07 26.6187 123.27 27.8921 124.742 28.7391C126.359 29.633 128.173 30.0783 130.006 30.0312C131.846 30.0766 133.666 29.6315 135.29 28.7391C136.772 27.8987 137.98 26.6241 138.761 25.076C139.617 23.332 140.038 21.3955 139.987 19.4414C140.042 17.4948 139.625 15.5648 138.774 13.8268ZM133.684 24.4832C133.219 25.01 132.654 25.4308 132.023 25.7188C131.392 26.0068 130.709 26.1555 130.019 26.1555C129.329 26.1555 128.647 26.0068 128.016 25.7188C127.385 25.4308 126.819 25.01 126.355 24.4832C125.447 23.3687 124.991 21.6837 124.987 19.4281C124.983 17.1725 125.439 15.4963 126.355 14.3996C126.822 13.8782 127.389 13.4622 128.02 13.1778C128.65 12.8933 129.331 12.7464 130.019 12.7464C130.708 12.7464 131.388 12.8933 132.019 13.1778C132.65 13.4622 133.216 13.8782 133.684 14.3996C134.591 15.4963 135.047 17.1725 135.052 19.4281C135.056 21.6837 134.6 23.3732 133.684 24.4965V24.4832Z" fill="#E9E6E3"/>
<path id="Vector_7" d="M76.5613 24.1899C75.728 24.863 74.7838 25.3752 73.7742 25.7018C72.7551 26.0174 71.6962 26.1745 70.6323 26.168C69.82 26.2203 69.0059 26.1027 68.2388 25.8223C67.4716 25.5419 66.7672 25.1045 66.1678 24.5363C65.1472 23.3581 64.5923 21.8274 64.6129 20.2471H78.2387V18.915C78.2784 17.1035 77.9395 15.3043 77.2452 13.6401C76.6347 12.1994 75.6216 10.9795 74.3355 10.1368C72.8987 9.26028 71.2484 8.828 69.5807 8.89134C67.8105 8.84991 66.0632 9.31064 64.529 10.2234C63.0916 11.1064 61.9244 12.3898 61.1613 13.9265C60.3232 15.6478 59.9067 17.5551 59.9484 19.4811C59.9484 22.758 60.8839 25.3355 62.7549 27.2137C64.6323 29.0919 67.2129 30.031 70.4968 30.031C71.9006 30.034 73.2961 29.8092 74.6323 29.365C75.85 28.9818 76.9877 28.3674 77.9871 27.5534L76.5613 24.1899ZM65.8968 14.1263C66.3321 13.5425 66.8985 13.0768 67.547 12.7693C68.1955 12.4618 68.9068 12.3218 69.6194 12.3613C70.2493 12.3207 70.8797 12.434 71.4592 12.692C72.0388 12.9501 72.5512 13.3457 72.9549 13.8466C73.7039 14.9406 74.1011 16.2499 74.0903 17.5896H64.671C64.7696 16.3422 65.1932 15.1455 65.8968 14.1263Z" fill="#E9E6E3"/>
<path id="Vector_8" d="M80.5355 30.5907C80.5355 31.9893 80.2709 32.9817 79.7419 33.5744C79.4555 33.8745 79.1109 34.1086 78.7306 34.2613C78.3503 34.4139 77.943 34.4818 77.5355 34.4603C77.1562 34.4585 76.7781 34.4183 76.4064 34.3404C76.0129 34.2538 75.6516 34.1606 75.3161 34.054V38.0501C75.8093 38.2505 76.3253 38.3848 76.8516 38.4498C77.3883 38.5259 77.9292 38.566 78.4709 38.5696C80.8666 38.5696 82.6215 37.9192 83.7355 36.6182C84.8516 35.3194 85.4129 33.4013 85.4129 30.8837V9.32446H80.5355V30.5907Z" fill="#E9E6E3"/>
<path id="Vector_9" d="M83.271 0.566074H82.6258C82.3032 0.548718 81.9805 0.599333 81.6774 0.714836C81.3744 0.83034 81.0972 1.00831 80.8629 1.23792C80.6286 1.46753 80.442 1.74397 80.3145 2.05041C80.187 2.35685 80.1213 2.68687 80.1213 3.02038C80.1213 3.35389 80.187 3.68391 80.3145 3.99035C80.442 4.29678 80.6286 4.57322 80.8629 4.80283C81.0972 5.03244 81.3744 5.21042 81.6774 5.32592C81.9805 5.44142 82.3032 5.49204 82.6258 5.47468H83.271C83.8801 5.44191 84.4538 5.16904 84.8737 4.71237C85.2936 4.25569 85.5277 3.65004 85.5277 3.02038C85.5277 2.39071 85.2936 1.78507 84.8737 1.32839C84.4538 0.871713 83.8801 0.598842 83.271 0.566074Z" fill="#E9E6E3"/>
<path id="Vector_10" d="M17.9356 10.2567C16.9792 9.41176 15.8631 8.78124 14.6581 8.40516C13.6956 8.07298 12.6963 7.86712 11.684 7.79241C13.4323 5.94086 16.6452 5.51461 16.6452 5.51461L14.6775 1.71826C14.6775 1.71826 7.6775 3.07695 6.33557 8.47842C5.89197 8.64047 5.46067 8.83638 5.04525 9.06452C3.47305 9.91997 2.17868 11.233 1.32267 12.8409C0.393325 14.6705 -0.0622633 16.717 8.44127e-05 18.7818C-0.058413 20.8595 0.385028 22.9195 1.29041 24.7761C2.13111 26.4226 3.42681 27.7741 5.01299 28.659C6.74408 29.5877 8.67572 30.0461 10.6259 29.991C11.9748 29.994 13.3151 29.769 14.5936 29.325C15.7886 28.9326 16.8885 28.2808 17.8194 27.4135L16.2581 23.7637C15.5212 24.451 14.6624 24.9848 13.7291 25.3355C12.88 25.6603 11.983 25.8316 11.0775 25.8417C10.2748 25.8878 9.47224 25.7478 8.72874 25.432C7.98524 25.1163 7.31964 24.6327 6.78073 24.0168C5.80654 22.8313 5.2646 21.0863 5.2646 18.8218C5.2646 16.5573 5.74847 14.9588 6.70976 13.7733C8.08395 17.9826 11.4969 20.8598 15.484 20.1805C18.942 19.5944 19.8969 17.6829 20.4001 15.9379C20.9678 13.8999 19.5872 11.8751 17.9356 10.2567ZM11.2065 13.054C11.0267 12.676 10.8819 12.2813 10.7743 11.8751H11.1033C12.0238 11.8847 12.9351 12.0652 13.7936 12.408C14.6089 12.7149 15.3664 13.1656 16.0323 13.74C16.2743 13.9491 16.4552 14.2235 16.5549 14.5326C17.142 16.5573 13.5033 18.0425 11.2065 13.054Z" fill="#E9E6E3"/>
</g>
<defs>
<clipPath id="clip0_2232_1769">
<rect width="140" height="38.5629" fill="white"/>
</clipPath>
</defs>
</svg>
