<svg width="16" height="16" viewBox="0 0 16 16" fill="none" xmlns="http://www.w3.org/2000/svg">
<path fill-rule="evenodd" clip-rule="evenodd" d="M14.354 4.64592C14.4005 4.69236 14.4375 4.74754 14.4627 4.80828C14.4879 4.86903 14.5009 4.93415 14.5009 4.99992C14.5009 5.06568 14.4879 5.13081 14.4627 5.19155C14.4375 5.2523 14.4005 5.30747 14.354 5.35392L8.35396 11.3539C8.30751 11.4005 8.25234 11.4374 8.19159 11.4626C8.13085 11.4878 8.06573 11.5008 7.99996 11.5008C7.93419 11.5008 7.86907 11.4878 7.80833 11.4626C7.74758 11.4374 7.69241 11.4005 7.64596 11.3539L1.64596 5.35392C1.55207 5.26003 1.49933 5.13269 1.49933 4.99992C1.49933 4.86714 1.55207 4.7398 1.64596 4.64592C1.73985 4.55203 1.86719 4.49928 1.99996 4.49928C2.13274 4.49928 2.26007 4.55203 2.35396 4.64592L7.99996 10.2929L13.646 4.64592C13.6924 4.59935 13.7476 4.56241 13.8083 4.5372C13.8691 4.512 13.9342 4.49902 14 4.49902C14.0657 4.49902 14.1308 4.512 14.1916 4.5372C14.2523 4.56241 14.3075 4.59935 14.354 4.64592Z" fill="#393939"/>
</svg>
